<svg xmlns="http://www.w3.org/2000/svg" viewBox="0 0 503 340" width="503" height="340">
	<style>
		tspan { white-space:pre }
		.shp0 { fill: #e64178 } 
		.shp1 { fill: #ff6e91 } 
		.shp2 { fill: #a5c3dc } 
		.shp3 { fill: #d7e6f0 } 
		.shp4 { fill: #555a6e } 
		.shp5 { fill: #463c4b } 
		.shp6 { fill: #e6e6eb } 
		.shp7 { fill: #00d2d2 } 
	</style>
	<g id="Layer">
		<g id="Layer">
			<path id="Layer" class="shp0" d="M461.31 330.47L45.32 331.3C27.65 331.34 13.29 317.04 13.26 299.36L12.75 43.36C12.71 25.69 27.01 11.34 44.68 11.3L460.67 10.47C478.35 10.43 492.7 24.73 492.74 42.4L493.25 298.4C493.29 316.08 478.99 330.43 461.31 330.47Z" />
		</g>
		<g id="Layer">
			<path id="Layer" class="shp1" d="M429.31 330.53L45.32 331.3C27.65 331.34 13.29 317.04 13.26 299.36L12.75 43.36C12.71 25.69 27.01 11.34 44.68 11.3L428.68 10.53C446.35 10.5 460.7 24.8 460.74 42.47L461.25 298.47C461.29 316.14 446.99 330.5 429.31 330.53Z" />
		</g>
		<g id="Layer">
			<g id="Layer">
				<path id="Layer" class="shp2" d="M205.22 282.98L77.22 283.24C68.39 283.25 61.21 276.11 61.19 267.27L60.97 155.27L220.97 154.95L221.19 266.95C221.21 275.79 214.06 282.96 205.22 282.98Z" />
			</g>
			<g id="Layer">
				<path id="Layer" class="shp3" d="M125.22 283.14L77.22 283.24C68.39 283.25 61.21 276.11 61.19 267.27L61 171.27L141 171.11L141.19 267.11C141.21 275.95 134.06 283.12 125.22 283.14Z" />
			</g>
			<g id="Layer">
				<path id="Layer" class="shp2" d="M52.89 115.28L228.89 114.93C233.3 114.92 236.89 118.5 236.9 122.92L236.95 146.92C236.96 151.33 233.38 154.92 228.97 154.93L52.97 155.28C48.55 155.29 44.96 151.72 44.95 147.3L44.91 123.3C44.9 118.88 48.47 115.29 52.89 115.28Z" />
			</g>
			<g id="Layer">
				<path id="Layer" class="shp3" d="M52.89 115.28L140.89 115.11C145.31 115.1 148.89 118.67 148.9 123.09L148.95 147.09C148.96 151.51 145.39 155.1 140.97 155.11L52.97 155.28C48.55 155.29 44.96 151.72 44.95 147.3L44.91 123.3C44.9 118.88 48.47 115.29 52.89 115.28Z" />
			</g>
			<g id="Layer">
				<path id="Layer" class="shp4" d="M92.97 155.2L108.97 155.17L109.22 283.17L93.22 283.2L92.97 155.2Z" />
			</g>
			<g id="Layer">
				<path id="Layer" class="shp5" d="M92.97 155.2L108.97 155.17L109 171.17L93 171.2L92.97 155.2Z" />
			</g>
			<g id="Layer">
				<path id="Layer" class="shp4" d="M100.95 147.19C100.96 151.61 104.55 155.18 108.97 155.17L92.97 155.2C88.55 155.21 84.96 151.64 84.95 147.22L84.9 123.22C84.9 118.8 88.47 115.21 92.89 115.2L108.89 115.17C104.47 115.18 100.9 118.77 100.9 123.19L100.95 147.19Z" />
			</g>
			<g id="Layer">
				<path id="Layer" class="shp5" d="M180.95 147.03C180.96 151.45 177.39 155.04 172.97 155.04L188.97 155.01C193.38 155 196.96 151.41 196.95 147L196.9 123C196.89 118.58 193.3 115 188.89 115.01L172.89 115.04C177.31 115.04 180.89 118.61 180.9 123.03L180.95 147.03Z" />
			</g>
			<g id="Layer">
				<path id="Layer" class="shp5" d="M172.97 155.04L188.97 155.01L189.22 283.01L173.22 283.04L172.97 155.04Z" />
			</g>
			<g id="Layer">
				<path id="Layer" fill-rule="evenodd" class="shp5" d="M140.89 115.11C137.65 115.11 134.73 113.17 133.49 110.19C132.24 107.2 132.92 103.76 135.2 101.46L161.01 75.55C171.62 64.9 185.74 59.02 200.77 58.99C216.21 58.96 228.8 71.49 228.83 86.93C228.86 102.37 216.33 114.96 200.89 114.99L140.89 115.11ZM160.17 99.07L200.85 98.99C207.47 98.98 212.84 93.58 212.83 86.96C212.82 80.35 207.42 74.98 200.81 74.99C190.05 75.01 179.94 79.22 172.35 86.84L160.17 99.07Z" />
			</g>
			<g id="Layer">
				<path id="Layer" fill-rule="evenodd" class="shp5" d="M80.89 115.23C65.45 115.26 52.86 102.72 52.83 87.28C52.8 71.85 65.34 59.26 80.78 59.23C95.81 59.2 109.96 65.02 120.61 75.63L146.52 101.44C148.81 103.72 149.5 107.16 148.27 110.15C147.04 113.15 144.12 115.1 140.89 115.11L80.89 115.23ZM68.83 87.25C68.85 93.87 74.24 99.24 80.86 99.23L121.54 99.15L109.32 86.97C101.69 79.38 91.57 75.21 80.81 75.23C74.19 75.24 68.82 80.64 68.83 87.25Z" />
			</g>
		</g>
		<g id="Layer">
			<path id="Layer" class="shp6" d="M346.15 82.7L351.49 82.69C354.43 82.68 356.82 85.07 356.83 88.01C356.84 92.43 360.43 96 364.85 95.99C369.26 95.98 372.84 92.4 372.83 87.98C372.81 78.06 365.98 69.74 356.79 67.38L356.78 61.34C356.77 56.93 353.18 53.35 348.76 53.36C344.34 53.37 340.77 56.96 340.78 61.38L340.79 67.41C331.61 69.81 324.81 78.15 324.83 88.07L324.84 90.5C324.85 98.63 329.39 105.93 336.67 109.56L353.94 118.15C355.76 119.06 356.9 120.88 356.9 122.92L356.9 125.34C356.91 128.28 354.52 130.68 351.58 130.69L346.25 130.7C343.31 130.7 340.91 128.31 340.91 125.37C340.9 120.96 337.31 117.38 332.89 117.39C328.47 117.4 324.9 120.99 324.91 125.41C324.93 135.32 331.76 143.65 340.95 146L340.96 152.04C340.97 156.46 344.56 160.03 348.97 160.02C353.39 160.01 356.97 156.43 356.96 152.01L356.95 145.97C366.13 143.58 372.93 135.23 372.91 125.31L372.9 122.88C372.88 114.75 368.35 107.45 361.07 103.83L343.79 95.23C341.97 94.33 340.84 92.5 340.84 90.47L340.83 88.04C340.83 85.1 343.21 82.7 346.15 82.7Z" />
			<path id="Layer" class="shp6" d="M300.85 98.79L284.85 98.82C280.44 98.83 276.86 102.42 276.87 106.84C276.88 111.25 280.47 114.83 284.89 114.82L300.89 114.79C305.3 114.78 308.88 111.19 308.87 106.77C308.86 102.35 305.27 98.78 300.85 98.79Z" />
			<path id="Layer" class="shp6" d="M412.85 98.56L396.85 98.6C392.43 98.61 388.86 102.19 388.87 106.61C388.88 111.03 392.47 114.61 396.88 114.6L412.88 114.56C417.3 114.56 420.88 110.97 420.87 106.55C420.86 102.13 417.27 98.56 412.85 98.56Z" />
		</g>
		<g id="Layer">
			<g id="Layer">
				<path id="Layer" class="shp7" d="M413.09 218.56L285.09 218.82C276.26 218.84 269.08 211.69 269.06 202.85C269.04 194.02 276.19 186.84 285.03 186.82L413.03 186.56C421.86 186.55 429.04 193.7 429.06 202.53C429.08 211.37 421.93 218.55 413.09 218.56Z" />
			</g>
			<g id="Layer">
				<path id="Layer" class="shp7" d="M365.22 282.66L285.22 282.82C276.38 282.84 269.21 275.69 269.19 266.85C269.17 258.02 276.32 250.84 285.16 250.82L365.16 250.66C373.99 250.64 381.17 257.79 381.19 266.63C381.21 275.47 374.06 282.64 365.22 282.66Z" />
			</g>
		</g>
	</g>
</svg>