<svg height="512" viewBox="0 0 512 512" width="512" xmlns="http://www.w3.org/2000/svg"><g id="filled_outline" data-name="filled outline"><path d="m123.045 334.477-55.367 27.684v44.733l36.322 73.106 16 8 56-24z" fill="#548aff"/><path d="m176 480-72-168 32-32 24 8 72 168-8 24z" fill="#4976f2"/><path d="m388.955 334.477 55.367 27.684v44.733l-36.322 73.106-16 8-56-24z" fill="#548aff"/><path d="m40 296-16-40h56v40z" fill="#4976f2"/><path d="m472 296 16-40h-56v40z" fill="#4976f2"/><path d="m80 256v-.00018a175.99983 175.99983 0 0 1 175.99982-175.99982h.00036a175.99983 175.99983 0 0 1 175.99982 175.99982v.00018h56v-.00023c0-128.12994-103.86983-231.99977-231.99977-231.99977h-.00046c-128.12994 0-231.99977 103.86983-231.99977 231.99977v.00023z" fill="#548aff"/><path d="m464 296v48l-16 16v40a16 16 0 0 1 -16 16 16 16 0 0 1 -16-16v-48l16-16v-40z" fill="#7dafff"/><path d="m48 296v48l16 16v40a16 16 0 0 0 16 16 16 16 0 0 0 16-16v-48l-16-16v-40z" fill="#7dafff"/><path d="m336 480 72-168-32-32-24 8-72 168 8 24z" fill="#4976f2"/><circle cx="384" cy="448" r="8"/><path d="m496 256a239.99992 239.99992 0 0 0 -409.70557-169.70557 238.42765 238.42765 0 0 0 -70.29443 169.70557h.0058a7.98688 7.98688 0 0 0 .56647 2.97119l16 40a8.00024 8.00024 0 0 0 7.42773 5.02881v40a7.99877 7.99877 0 0 0 2.34326 5.65674l13.65674 13.65674v36.68652a23.94724 23.94724 0 0 0 8.34772 18.17078l32.48773 65.38879a7.99661 7.99661 0 0 0 3.58691 3.5957l16 8a7.99852 7.99852 0 0 0 6.729.19776l42.85376-18.366 2.64184 6.16431a7.99956 7.99956 0 0 0 7.35304 4.84866h48a8.00011 8.00011 0 0 0 7.58936-5.47021l8-24a7.99889 7.99889 0 0 0 -.23633-5.68116l-72-168a7.99955 7.99955 0 0 0 -4.82324-4.438l-24-8a8.00018 8.00018 0 0 0 -8.18653 1.93262l-32 32a8 8 0 0 0 -1.69629 8.80811l8.32276 19.41967-10.05683 5.02834-6.9129-6.91285v-76.68652c0-92.63574 75.36426-168 168-168s168 75.36426 168 168v76.68652l-6.9129 6.91285-10.05683-5.02837 8.32276-19.41967a8 8 0 0 0 -1.69629-8.80811l-32-32a8.0009 8.0009 0 0 0 -8.18653-1.93262l-24 8a7.99955 7.99955 0 0 0 -4.82324 4.438l-72 168a7.99889 7.99889 0 0 0 -.23633 5.68116l8 24a8.00011 8.00011 0 0 0 7.58936 5.47024h48a7.99956 7.99956 0 0 0 7.353-4.84863l2.64184-6.16431 42.85376 18.366a7.99852 7.99852 0 0 0 6.729-.19776l16-8a7.99661 7.99661 0 0 0 3.58691-3.5957l32.48773-65.38879a23.94724 23.94724 0 0 0 8.34776-18.17081v-36.68652l13.65674-13.65674a7.99877 7.99877 0 0 0 2.34326-5.65674v-40a8.00024 8.00024 0 0 0 7.42773-5.02881l16-40a7.98688 7.98688 0 0 0 .56647-2.97119zm-460.18359 8h36.18359v24h-26.5835zm36.18359 40v16h-16v-16zm-16 36.68652v-4.68652h16a7.99877 7.99877 0 0 0 2.34326 5.65674l13.65674 13.65674v44.68652a8 8 0 0 1 -16 0v-40a7.99877 7.99877 0 0 0 -2.34326-5.65674zm82.16064-51.53369 15.90137 5.30078 69.38672 161.90239-5.21484 15.644h-36.9585l-67.78857-158.17285zm21.54187 173.12817-39.44323 16.90405-10.28614-5.14305-25.10943-50.53809a24.04032 24.04032 0 0 0 19.13629-23.50391v-47.05591l7.2832-3.6416zm134.0636 9.719-5.21484-15.644 69.38673-161.90239 15.90137-5.30078 24.67382 24.67432-67.78858 158.17285zm108.26075 2.042-10.28614 5.14307-39.44323-16.90407 48.41931-112.97851 7.2832 3.6416v47.05591a24.04032 24.04032 0 0 0 19.13629 23.50391zm40.3164-119.69873a7.99877 7.99877 0 0 0 -2.34326 5.65673v40a8 8 0 0 1 -16 0v-44.68652l13.65674-13.65674a7.99877 7.99877 0 0 0 2.34326-5.65674h16v4.68652zm13.65674-34.34327h-16v-16h16zm10.5835-32h-26.5835v-24h36.18359zm-26.768-40c-4.20417-97.76-85.03883-176-183.8155-176s-179.61133 78.24-183.81555 176h-40.02851a223.99079 223.99079 0 0 1 382.23615-150.39209 222.40355 222.40355 0 0 1 65.45197 150.39209z"/></g></svg>