<svg id="Layer_1" enable-background="new 0 0 512 512" height="512" viewBox="0 0 512 512" width="512" xmlns="http://www.w3.org/2000/svg"><g><g><path d="m464 416h-416c-17.673 0-32-14.327-32-32v-256c0-17.673 14.327-32 32-32h416c17.673 0 32 14.327 32 32v256c0 17.673-14.327 32-32 32z" fill="#e64178"/></g><g><path d="m432 416h-384c-17.673 0-32-14.327-32-32v-256c0-17.673 14.327-32 32-32h384c17.673 0 32 14.327 32 32v256c0 17.673-14.327 32-32 32z" fill="#ff6e91"/></g><g><g><path d="m208 368h-128c-8.837 0-16-7.163-16-16v-112h160v112c0 8.837-7.163 16-16 16z" fill="#a5c3dc"/></g><g><path d="m128 368h-48c-8.837 0-16-7.163-16-16v-96h80v96c0 8.837-7.163 16-16 16z" fill="#d7e6f0"/></g><g><path d="m56 200h176c4.418 0 8 3.582 8 8v24c0 4.418-3.582 8-8 8h-176c-4.418 0-8-3.582-8-8v-24c0-4.418 3.582-8 8-8z" fill="#a5c3dc"/></g><g><path d="m56 200h88c4.418 0 8 3.582 8 8v24c0 4.418-3.582 8-8 8h-88c-4.418 0-8-3.582-8-8v-24c0-4.418 3.582-8 8-8z" fill="#d7e6f0"/></g><g><path d="m96 240h16v128h-16z" fill="#555a6e"/></g><g><path d="m96 240h16v16h-16z" fill="#463c4b"/></g><g><path d="m104 232c0 4.418 3.582 8 8 8h-16c-4.418 0-8-3.582-8-8v-24c0-4.418 3.582-8 8-8h16c-4.418 0-8 3.582-8 8z" fill="#555a6e"/></g><g><path d="m184 232c0 4.418-3.582 8-8 8h16c4.418 0 8-3.582 8-8v-24c0-4.418-3.582-8-8-8h-16c4.418 0 8 3.582 8 8z" fill="#463c4b"/></g><g><path d="m176 240h16v128h-16z" fill="#463c4b"/></g><g><path d="m204 200h-60c-3.236 0-6.153-1.949-7.391-4.938-1.238-2.99-.554-6.43 1.734-8.718l25.858-25.858c10.631-10.632 24.765-16.486 39.799-16.486 15.439 0 28 12.561 28 28s-12.561 28-28 28zm-40.687-16h40.687c6.617 0 12-5.383 12-12s-5.383-12-12-12c-10.76 0-20.876 4.19-28.485 11.799z" fill="#463c4b"/></g><g><path d="m144 200h-60c-15.439 0-28-12.561-28-28s12.561-28 28-28c15.034 0 29.168 5.854 39.799 16.485l25.858 25.858c2.288 2.288 2.973 5.729 1.734 8.718-1.238 2.99-4.155 4.939-7.391 4.939zm-60-40c-6.617 0-12 5.383-12 12s5.383 12 12 12h40.687l-12.201-12.201c-7.61-7.609-17.726-11.799-28.486-11.799z" fill="#463c4b"/></g></g><g fill="#e6e6eb"><path d="m349.333 168h5.333c2.941 0 5.333 2.393 5.333 5.333 0 4.418 3.582 8 8 8s8-3.582 8-8c0-9.919-6.814-18.253-16-20.631v-6.035c0-4.418-3.582-8-8-8s-8 3.582-8 8v6.035c-9.186 2.378-16 10.712-16 20.631v2.426c0 8.133 4.519 15.444 11.793 19.081l17.259 8.629c1.818.909 2.948 2.737 2.948 4.77v2.426c0 2.941-2.393 5.333-5.333 5.333h-5.333c-2.941 0-5.333-2.393-5.333-5.333 0-4.418-3.582-8-8-8s-8 3.582-8 8c0 9.919 6.814 18.253 16 20.631v6.035c0 4.418 3.582 8 8 8s8-3.582 8-8v-6.035c9.186-2.378 16-10.712 16-20.631v-2.426c0-8.133-4.519-15.444-11.793-19.081l-17.259-8.629c-1.818-.909-2.948-2.737-2.948-4.77v-2.426c0-2.94 2.393-5.333 5.333-5.333z"/><path d="m304 184h-16c-4.418 0-8 3.582-8 8s3.582 8 8 8h16c4.418 0 8-3.582 8-8s-3.582-8-8-8z"/><path d="m416 184h-16c-4.418 0-8 3.582-8 8s3.582 8 8 8h16c4.418 0 8-3.582 8-8s-3.582-8-8-8z"/></g><g><g><path d="m416 304h-128c-8.837 0-16-7.163-16-16 0-8.837 7.163-16 16-16h128c8.837 0 16 7.163 16 16 0 8.837-7.163 16-16 16z" fill="#00d2d2"/></g><g><path d="m368 368h-80c-8.837 0-16-7.163-16-16 0-8.837 7.163-16 16-16h80c8.837 0 16 7.163 16 16 0 8.837-7.163 16-16 16z" fill="#00d2d2"/></g></g></g></svg>