<?xml version="1.0" encoding="iso-8859-1"?>
<!-- Generator: Adobe Illustrator 19.0.0, SVG Export Plug-In . SVG Version: 6.00 Build 0)  -->
<svg version="1.1" id="Capa_1" xmlns="http://www.w3.org/2000/svg" xmlns:xlink="http://www.w3.org/1999/xlink" x="0px" y="0px"
	 viewBox="0 0 512 512" style="enable-background:new 0 0 512 512;" xml:space="preserve">
<g>
	<path style="fill:#466389;" d="M213.73,335.115c-66.247-0.428-119.821-54.256-119.821-120.604
		c0-66.613,54.001-120.614,120.614-120.614c66.348,0,120.176,53.573,120.604,119.821l47.526-47.526
		c-4.128-14.412-10.137-28.399-18.038-41.57l22.705-35.428l-47.479-47.479L304.413,64.42c-14.916-8.948-30.875-15.478-47.318-19.587
		L248.096,10H180.95l-8.999,34.833c-16.443,4.109-32.402,10.638-47.317,19.586L89.206,41.715L41.727,89.194l22.704,35.428
		c-8.948,14.916-15.478,30.875-19.586,47.318l-34.833,8.999v67.145l34.833,8.999c4.109,16.442,10.638,32.402,19.586,47.318
		l-22.704,35.428l47.479,47.479l35.428-22.704c13.171,7.901,27.157,13.91,41.57,18.039L213.73,335.115z"/>
	<polygon style="fill:#466389;" points="314.265,370.917 339.841,387.308 387.32,339.828 370.929,314.253 	"/>
</g>
<polygon style="fill:#1FCDD3;" points="137.107,442.529 115.014,502 174.485,479.907 "/>
<rect x="263.004" y="124.305" transform="matrix(-0.7071 -0.7071 0.7071 -0.7071 315.0273 742.1041)" style="fill:#FE5E47;" width="96.409" height="363.007"/>
<path style="fill:#FFEEAC;" d="M335.127,213.718c-0.428-66.247-54.256-119.821-120.604-119.821
	c-66.613,0-120.614,54.001-120.614,120.614c0,66.348,53.573,120.176,119.821,120.604L335.127,213.718z"/>
<g>
	
		<rect x="150.187" y="407.622" transform="matrix(-0.7071 0.7071 -0.7071 -0.7071 605.6157 644.5295)" style="fill:#FFB05F;" width="38.27" height="80.139"/>
	<path style="fill:#FFB05F;" d="M490.276,126.738c-15.648-15.648-41.018-15.648-56.666,0l-22.394,22.394l56.666,56.666
		l22.394-22.394C505.924,167.756,505.924,142.386,490.276,126.738z"/>
</g>
<path d="M482.022,205.801l15.326-15.326c19.521-19.521,19.521-51.286,0-70.808l0,0c-19.524-19.523-51.288-19.52-70.809,0
	l-15.451,15.451c-3.893-2.655-9.241-2.262-12.695,1.192l-11.413,11.413c-3.033-7.846-6.59-15.478-10.663-22.826L395.74,94.59
	c2.535-3.956,1.974-9.144-1.349-12.466l-47.479-47.479c-3.323-3.324-8.512-3.883-12.467-1.349l-30.307,19.422
	c-12.281-6.811-25.294-12.187-38.822-16.038l-7.539-29.182C256.638,3.084,252.655,0,248.096,0H180.95
	c-4.56,0-8.542,3.084-9.682,7.498l-7.539,29.182c-13.528,3.851-26.54,9.227-38.821,16.037L94.602,33.295
	c-3.955-2.534-9.144-1.975-12.467,1.348l-47.48,47.48c-3.322,3.323-3.884,8.511-1.348,12.467l19.422,30.307
	c-6.811,12.282-12.188,25.296-16.037,38.821L7.51,171.257c-4.415,1.141-7.499,5.123-7.499,9.682v67.145
	c0,4.56,3.084,8.542,7.499,9.682l29.182,7.539c3.851,13.526,9.226,26.539,16.037,38.822l-19.422,30.306
	c-2.536,3.956-1.975,9.144,1.348,12.467l47.478,47.479c1.932,1.931,4.491,2.929,7.074,2.929c1.862,0,3.735-0.518,5.393-1.581
	l30.308-19.423c7.349,4.073,14.981,7.63,22.826,10.663L141.702,393c-3.454,3.454-3.847,8.803-1.192,12.695l-20.118,20.119
	c-1.875,1.876-2.929,4.419-2.929,7.071s1.054,5.196,2.929,7.071l5.106,5.106l-19.858,53.455c-1.361,3.665-0.462,7.789,2.303,10.554
	c1.909,1.909,4.467,2.929,7.073,2.929c1.168,0,2.346-0.205,3.48-0.626l53.455-19.858l5.106,5.106
	c1.953,1.953,4.512,2.929,7.071,2.929c2.56,0,5.118-0.976,7.071-2.929l20.118-20.119c1.692,1.154,3.656,1.737,5.624,1.737
	c2.559,0,5.118-0.977,7.071-2.929l91.632-91.632l18.799,12.048c1.657,1.062,3.53,1.581,5.393,1.581c2.582,0,5.143-0.999,7.074-2.929
	l37.451-37.451L501.68,239.611c3.904-3.905,3.905-10.235,0.002-14.141L482.022,205.801z M440.682,133.809
	c11.722-11.723,30.8-11.724,42.523-0.001c11.724,11.724,11.724,30.8,0,42.524l-15.323,15.323l-42.524-42.523L440.682,133.809z
	 M129.778,356.028c-3.258-1.954-7.341-1.895-10.54,0.156l-28.653,18.362l-36.097-36.098l18.361-28.652
	c2.05-3.198,2.11-7.282,0.156-10.54c-8.32-13.871-14.531-28.875-18.459-44.598c-0.889-3.556-3.652-6.341-7.201-7.258l-27.334-7.062
	v-51.656l27.334-7.061c3.549-0.917,6.313-3.702,7.201-7.258c3.928-15.722,10.139-30.727,18.459-44.598
	c1.954-3.258,1.894-7.341-0.156-10.54L54.488,90.574l36.098-36.098l28.652,18.362c3.198,2.05,7.282,2.11,10.54,0.156
	c13.868-8.319,28.873-14.53,44.598-18.459c3.556-0.889,6.341-3.651,7.258-7.2L188.695,20h51.655l7.063,27.334
	c0.916,3.549,3.701,6.312,7.257,7.2c15.725,3.93,30.73,10.141,44.599,18.46c3.257,1.953,7.34,1.895,10.54-0.156l28.652-18.362
	l36.097,36.098l-18.361,28.652c-2.05,3.198-2.11,7.282-0.156,10.54c6.341,10.569,11.473,21.848,15.295,33.601l-28.203,28.203
	c-4.634-26.297-17.219-50.494-36.537-69.697c-24.636-24.489-57.334-37.975-92.072-37.975c-72.021,0-130.613,58.593-130.613,130.614
	c0,34.738,13.486,67.437,37.976,92.072c19.203,19.318,43.4,31.902,69.697,36.537l-28.202,28.202
	C151.626,367.501,140.347,362.369,129.778,356.028z M209.697,325.005c-58.7-2.542-105.788-51.27-105.788-110.493
	c0-60.993,49.621-110.614,110.613-110.614c59.224,0,107.952,47.088,110.494,105.788L209.697,325.005z M131.986,485.027l9.067-24.409
	l3.235,3.235l12.106,12.106L131.986,485.027z M184.129,475.409l-2.569-2.569c-0.001-0.001-0.003-0.003-0.004-0.004l-37.379-37.378
	l-2.572-2.572l12.919-12.92l42.523,42.523L184.129,475.409z M216.943,454.097l-54.027-54.026l10.358-10.358l0,0l47.526-47.526
	c0.001-0.001,0.001-0.001,0.001-0.002L342.197,220.79c0.001,0,0.001-0.001,0.002-0.001l47.526-47.526
	c0.002-0.002,0.004-0.005,0.006-0.007l15.733-15.733l51.068,51.068l2.959,2.96l-95.632,95.632l-56.664,56.664L216.943,454.097z
	 M338.461,374.546l-8.338-5.343l39.092-39.092l5.343,8.337l-18.189,18.189c-0.005,0.005-0.009,0.01-0.014,0.015L338.461,374.546z
	 M389.034,323.971l-5.342-8.337l89.938-89.937l6.838,6.842L389.034,323.971z"/>
<path d="M225.302,402.04c-0.65,0-1.311-0.06-1.95-0.19c-0.64-0.13-1.271-0.32-1.88-0.57c-0.601-0.25-1.18-0.56-1.72-0.92
	c-0.551-0.36-1.061-0.78-1.52-1.24c-1.86-1.86-2.93-4.44-2.93-7.07c0-0.66,0.06-1.31,0.189-1.96c0.13-0.64,0.33-1.27,0.58-1.87
	s0.55-1.18,0.92-1.73c0.36-0.54,0.78-1.05,1.24-1.52c0.46-0.46,0.97-0.88,1.52-1.24c0.54-0.36,1.119-0.67,1.72-0.92
	c0.609-0.25,1.24-0.44,1.88-0.57c1.28-0.26,2.61-0.26,3.9,0c0.64,0.13,1.27,0.32,1.869,0.57c0.61,0.25,1.19,0.56,1.73,0.92
	c0.55,0.36,1.06,0.78,1.52,1.24c0.46,0.47,0.881,0.98,1.24,1.52c0.36,0.55,0.67,1.13,0.92,1.73s0.45,1.23,0.57,1.87
	c0.13,0.65,0.2,1.3,0.2,1.96c0,2.63-1.07,5.21-2.931,7.07c-0.46,0.46-0.97,0.88-1.52,1.24c-0.54,0.36-1.12,0.67-1.73,0.92
	c-0.6,0.25-1.229,0.44-1.869,0.57C226.611,401.98,225.951,402.04,225.302,402.04z"/>
<path d="M248.401,378.945c-2.559,0-5.118-0.976-7.071-2.929c-3.905-3.905-3.905-10.237,0-14.143L396.635,206.57
	c3.905-3.905,10.237-3.904,14.143,0c3.905,3.905,3.905,10.237,0,14.143L255.473,376.017
	C253.521,377.969,250.96,378.945,248.401,378.945z"/>
<path d="M286.371,224.51c-0.649,0-1.31-0.07-1.96-0.2c-0.63-0.12-1.26-0.32-1.869-0.57c-0.601-0.25-1.181-0.55-1.721-0.92
	c-0.55-0.36-1.06-0.78-1.52-1.24c-0.46-0.461-0.88-0.97-1.25-1.52c-0.36-0.54-0.67-1.12-0.92-1.72c-0.25-0.61-0.44-1.24-0.57-1.87
	c-0.13-0.65-0.19-1.31-0.19-1.96c0-0.65,0.06-1.31,0.19-1.95s0.32-1.27,0.57-1.87c0.25-0.61,0.56-1.19,0.92-1.73
	c0.37-0.55,0.779-1.06,1.25-1.52c0.46-0.46,0.97-0.88,1.52-1.24c0.54-0.36,1.12-0.67,1.721-0.92c0.609-0.25,1.239-0.44,1.869-0.57
	c1.29-0.26,2.62-0.26,3.91,0c0.641,0.13,1.271,0.32,1.87,0.57c0.601,0.25,1.19,0.56,1.73,0.92c0.55,0.36,1.06,0.78,1.52,1.24
	s0.88,0.97,1.24,1.52c0.36,0.54,0.67,1.12,0.92,1.73c0.25,0.6,0.441,1.23,0.57,1.87c0.13,0.64,0.199,1.3,0.199,1.95
	s-0.069,1.31-0.199,1.96c-0.13,0.63-0.32,1.26-0.57,1.87c-0.25,0.6-0.559,1.18-0.92,1.72c-0.36,0.55-0.78,1.059-1.24,1.52
	c-0.46,0.46-0.97,0.88-1.52,1.24c-0.54,0.37-1.13,0.67-1.73,0.92s-1.229,0.45-1.87,0.57
	C287.682,224.44,287.022,224.51,286.371,224.51z"/>
<path d="M193.461,293.21c-0.973,0-1.961-0.142-2.939-0.443c-16.384-5.034-31.108-15.395-41.463-29.176
	c-10.718-14.264-16.383-31.235-16.383-49.08c0-45.13,36.716-81.847,81.847-81.847c30.418,0,58.166,16.753,72.415,43.723
	c2.58,4.883,0.713,10.933-4.17,13.513c-4.885,2.58-10.935,0.712-13.514-4.17c-10.776-20.395-31.748-33.065-54.731-33.065
	c-34.103,0-61.847,27.744-61.847,61.847c0,26.911,17.978,51.229,43.719,59.138c5.279,1.622,8.244,7.217,6.622,12.496
	C201.695,290.446,197.737,293.21,193.461,293.21z"/>
<g>
</g>
<g>
</g>
<g>
</g>
<g>
</g>
<g>
</g>
<g>
</g>
<g>
</g>
<g>
</g>
<g>
</g>
<g>
</g>
<g>
</g>
<g>
</g>
<g>
</g>
<g>
</g>
<g>
</g>
</svg>
