<svg height="512" viewBox="0 0 61 60" width="512" xmlns="http://www.w3.org/2000/svg"><g id="003---Learn-Language"><path id="Shape" d="m43 31h-3c-.5522847 0-1 .4477153-1 1s.4477153 1 1 1h3v5.091c-2.2216487.3136273-3.9034577 2.1674013-4 4.409.1479381 2.6186319 2.3803062 4.6277633 5 4.5 1.784 0 4.723-.711 4.982-5.328.7867198 1.2994328 1.1429934 2.8141207 1.018 4.328 0 .5522847.4477153 1 1 1s1-.4477153 1-1c0-3.89-1.231-5.923-3-6.964v-1.036c0-.5522847-.4477153-1-1-1s-1 .4477153-1 1v.276c-.6588403-.1351093-1.3278518-.2147216-2-.238v-5.038h3c.5522847 0 1-.4477153 1-1s-.4477153-1-1-1h-3v-1c0-.5522847-.4477153-1-1-1s-1 .4477153-1 1zm0 9.154v4.692c-2.661-.79-2.661-3.902 0-4.692zm4 .185c0 1.909-.106 4.026-2 4.543v-4.853c.6765985.0236832 1.3479798.1277472 2 .31z"/><path id="Shape" d="m21.218 36 2.9 5.468c.2584693.4882197.8637803.6744693 1.352.416s.6744693-.8637803.416-1.352l-7.134-13.457c-.3362777-.6568578-1.0120672-1.0700893-1.75-1.0700893s-1.4137223.4132315-1.75 1.0700893l-7.136 13.457c-.1672003.3158228-.15321029.6968554.03670011.9995665s.5268893.4811116.884.468c.3571107-.0131117.68009959-.2157437.84729989-.5315665l2.885-5.468zm-4.234-7.988 3.174 5.988h-6.333z"/><path id="Shape" d="m60 11.352c-.0133207-.8280975-.5532292-1.55548542-1.342-1.808l-27.658-9.376c-.6443348-.2224864-1.3446652-.2224864-1.989 0l-27.673 9.358c-.7880046.25532202-1.32591779.9841218-1.33767889 1.8123743-.01176109.8282525.50524163 1.572032 1.28567889 1.8496257l14.714 5.467v1.345h-13c-1.65685425 0-3 1.3431458-3 3v22c0 1.6568542 1.34314575 3 3 3h1v6c0 .7575441.42800475 1.4500704 1.10557281 1.7888544s1.4883919.2656721 2.09442719-.1888544l10.133-7.6h9.667v1c0 1.6568542 1.3431458 3 3 3h12.667l10.133 7.6c.6060353.4545265 1.4168591.5276384 2.0944272.1888544.677568-.338784 1.1055728-1.0313103 1.1055728-1.7888544v-6h1c1.6568542 0 3-1.3431458 3-3v-22c0-1.6568542-1.3431458-3-3-3h-13v-5.325l14-5.2v6.525c0 .5522847.4477153 1 1 1s1-.4477153 1-1c0-5.447.016-8.768 0-8.648zm-54 42.648v-6h2c.55228475 0 1-.4477153 1-1s-.44771525-1-1-1h-5c-.55228475 0-1-.4477153-1-1v-22c0-.5522847.44771525-1 1-1h27c.5522847 0 1 .4477153 1 1v22c0 .5522847-.4477153 1-1 1h-18c-.5522847 0-1 .4477153-1 1s.4477153 1 1 1h2zm52-27v22c0 .5522847-.4477153 1-1 1h-5c-.5522847 0-1 .4477153-1 1s.4477153 1 1 1h2v6l-8-6h2c.5522847 0 1-.4477153 1-1s-.4477153-1-1-1h-18c-.5522847 0-1-.4477153-1-1v-1h1c1.6568542 0 3-1.3431458 3-3v-19h24c.5522847 0 1 .4477153 1 1zm-25-3v-1c0-1.6568542-1.3431458-3-3-3h-12v-5c0-1.058 4.556-3 12-3s12 1.942 12 3v9zm11-7.459v-1.541c0-6.669-28-6.667-28 0v1.521l-13.869-5.152 27.528-9.312c.5-.174-1.124-.612 28.209 9.332z"/></g></svg>