<svg id="Layer_1" enable-background="new 0 0 256 256" height="512" viewBox="0 0 256 256" width="512" xmlns="http://www.w3.org/2000/svg"><g><path d="m32.035 188.952c-7.535 0-13.665-6.13-13.665-13.665v-123.776c0-7.535 6.13-13.665 13.665-13.665h191.931c7.535 0 13.665 6.13 13.665 13.665v123.776c0 7.535-6.13 13.665-13.665 13.665z" fill="#63bce7"/><path d="m229.221 51.535v123.728c0 2.916-2.364 5.28-5.28 5.28h-191.882c-2.916 0-5.28-2.364-5.28-5.28v-123.728c0-2.916 2.364-5.28 5.28-5.28h191.882c2.916 0 5.28 2.364 5.28 5.28z" fill="#f8af23"/><g><path d="m37.446 175.263v-123.728c0-2.916 2.364-5.28 5.28-5.28h-10.667c-2.916 0-5.28 2.364-5.28 5.28v123.728c0 2.916 2.364 5.28 5.28 5.28h10.667c-2.916 0-5.28-2.364-5.28-5.28z" fill="#f87023"/></g><g><path d="m218.554 175.263v-123.728c0-2.916-2.364-5.28-5.28-5.28h10.667c2.916 0 5.28 2.364 5.28 5.28v123.728c0 2.916-2.364 5.28-5.28 5.28h-10.667c2.916 0 5.28-2.364 5.28-5.28z" fill="#f8d323"/></g><path d="m128 188.952h-119.333l3.053 7.024c2.751 6.329 8.995 10.423 15.896 10.423h100.384 100.385c6.901 0 13.145-4.094 15.896-10.423l3.053-7.024z" fill="#9e9e9e"/><g><path d="m22.386 195.976-3.053-7.024h-10.666l3.053 7.024c2.751 6.329 8.995 10.423 15.896 10.423h10.667c-6.902 0-13.146-4.094-15.897-10.423z" fill="#707070"/></g><g><path d="m233.614 195.976 3.053-7.024h10.667l-3.053 7.024c-2.751 6.329-8.995 10.423-15.896 10.423h-10.667c6.901 0 13.145-4.094 15.896-10.423z" fill="#cecece"/></g><path d="m82.442 188.952 4.22 5.388c1.649 2.106 4.175 3.336 6.85 3.336h68.975c2.675 0 5.201-1.23 6.85-3.336l4.221-5.388z" fill="#f46275"/><path d="m37.446 59.19h181.109v108.5h-181.109z" fill="#f46275"/><g><g fill="#63bce7"><path d="m58.295 156.955c0 1.429-1.158 2.587-2.587 2.587-1.429 0-2.587-1.158-2.587-2.587v-11.076c0-1.429 1.158-2.587 2.587-2.587 1.429 0 2.587 1.158 2.587 2.587z"/><path d="m69.42 156.955c0 1.429-1.158 2.587-2.587 2.587-1.429 0-2.587-1.158-2.587-2.587v-11.076c0-1.429 1.158-2.587 2.587-2.587 1.429 0 2.587 1.158 2.587 2.587z"/></g><path d="m79.212 148.25c-1.65 0-3 1.35-3 3v.333c0 1.65 1.35 3 3 3h75.258v-6.333z" fill="#f8af23"/></g><g><path d="m68.467 77.349h119.066v55.984h-119.066z" fill="#63bce7"/><path d="m123.284 90.009 12.397 8.639c1.528 1.065 1.528 3.326 0 4.39l-12.397 8.639c-1.774 1.236-4.205-.033-4.205-2.195v-17.278c0-2.162 2.431-3.431 4.205-2.195z" fill="#f8af23"/></g><g><circle cx="187.533" cy="77.349" fill="#9e9e9e" r="11.094"/><g fill="#3f3679"><path d="m230.721 175.263v-123.728c0-3.738-3.042-6.78-6.78-6.78h-191.882c-3.739 0-6.78 3.042-6.78 6.78v123.728c0 3.739 3.042 6.78 6.78 6.78h191.882c3.739 0 6.78-3.041 6.78-6.78zm-202.442 0v-123.728c0-2.084 1.696-3.78 3.78-3.78h191.882c2.084 0 3.78 1.696 3.78 3.78v123.728c0 2.084-1.696 3.78-3.78 3.78h-191.882c-2.084 0-3.78-1.695-3.78-3.78z"/><path d="m245.656 196.574 3.053-7.023c.202-.464.156-.998-.121-1.421-.277-.422-.749-.677-1.254-.677h-14.352c3.722-2.766 6.149-7.182 6.149-12.165v-123.777c0-8.362-6.803-15.165-15.165-15.165h-191.931c-8.362 0-15.165 6.803-15.165 15.165v123.776c0 4.983 2.427 9.399 6.149 12.165h-14.352c-.505 0-.977.255-1.254.678-.277.422-.323.957-.121 1.42l3.053 7.023c2.99 6.88 9.77 11.325 17.271 11.325h200.77c7.501.001 14.28-4.444 17.27-11.324zm-225.786-21.286v-123.777c0-6.708 5.457-12.165 12.165-12.165h191.931c6.708 0 12.165 5.457 12.165 12.165v123.776c0 6.708-5.457 12.165-12.165 12.165h-50.407-91.117-50.407c-6.708.001-12.165-5.456-12.165-12.164zm150.608 15.165-2.321 2.963c-1.375 1.754-3.441 2.76-5.669 2.76h-68.975c-2.229 0-4.295-1.006-5.669-2.76l-2.321-2.963zm57.907 14.446h-200.77c-4.787 0-9.22-2.157-12.18-5.724h29.14c.829 0 1.5-.671 1.5-1.5s-.671-1.5-1.5-1.5h-31.097c-.132-.263-.264-.526-.382-.798l-2.141-4.925h21.081 49.677l3.77 4.812c1.947 2.485 4.874 3.911 8.031 3.911h68.975c3.157 0 6.084-1.425 8.031-3.911l3.77-4.812h49.677 21.081l-2.141 4.925c-.118.272-.25.535-.382.798h-31.099c-.829 0-1.5.671-1.5 1.5s.671 1.5 1.5 1.5h29.141c-2.962 3.568-7.395 5.724-12.182 5.724z"/><path d="m65.22 196.176h-10.375c-.829 0-1.5.671-1.5 1.5s.671 1.5 1.5 1.5h10.375c.829 0 1.5-.671 1.5-1.5s-.672-1.5-1.5-1.5z"/><path d="m201.155 196.176h-10.375c-.829 0-1.5.671-1.5 1.5s.671 1.5 1.5 1.5h10.375c.829 0 1.5-.671 1.5-1.5s-.671-1.5-1.5-1.5z"/><path d="m25.89 216.653h-18.5c-.829 0-1.5.671-1.5 1.5s.671 1.5 1.5 1.5h18.5c.829 0 1.5-.671 1.5-1.5s-.672-1.5-1.5-1.5z"/><path d="m248.61 216.653h-18.5c-.829 0-1.5.671-1.5 1.5s.671 1.5 1.5 1.5h18.5c.829 0 1.5-.671 1.5-1.5s-.671-1.5-1.5-1.5z"/><path d="m215.337 216.653h-174.674c-.829 0-1.5.671-1.5 1.5s.671 1.5 1.5 1.5h174.674c.829 0 1.5-.671 1.5-1.5s-.671-1.5-1.5-1.5z"/><path d="m7.39 207.899h7.944c.829 0 1.5-.671 1.5-1.5s-.671-1.5-1.5-1.5h-7.944c-.829 0-1.5.671-1.5 1.5s.671 1.5 1.5 1.5z"/><path d="m240.667 204.899c-.829 0-1.5.671-1.5 1.5s.671 1.5 1.5 1.5h7.944c.829 0 1.5-.671 1.5-1.5s-.671-1.5-1.5-1.5z"/><path d="m218.554 57.689h-181.108c-.829 0-1.5.671-1.5 1.5v108.5c0 .829.671 1.5 1.5 1.5h181.108c.829 0 1.5-.671 1.5-1.5v-108.5c0-.828-.671-1.5-1.5-1.5zm-1.5 108.5h-178.108v-105.5h178.108z"/><path d="m55.708 161.042c2.253 0 4.087-1.833 4.087-4.087v-11.076c0-2.254-1.833-4.087-4.087-4.087s-4.087 1.833-4.087 4.087v11.076c0 2.253 1.834 4.087 4.087 4.087zm-1.087-15.163c0-.6.488-1.087 1.087-1.087s1.087.488 1.087 1.087v11.076c0 .599-.488 1.087-1.087 1.087-.6 0-1.087-.488-1.087-1.087z"/><path d="m66.833 161.042c2.253 0 4.087-1.833 4.087-4.087v-11.076c0-2.254-1.833-4.087-4.087-4.087s-4.087 1.833-4.087 4.087v11.076c0 2.253 1.834 4.087 4.087 4.087zm-1.087-15.163c0-.6.488-1.087 1.087-1.087s1.087.488 1.087 1.087v11.076c0 .599-.488 1.087-1.087 1.087-.6 0-1.087-.488-1.087-1.087z"/><path d="m154.47 146.75h-75.258c-2.481 0-4.5 2.019-4.5 4.5v.333c0 2.481 2.019 4.5 4.5 4.5h75.258 45.409c2.481 0 4.5-2.019 4.5-4.5v-.333c0-2.481-2.019-4.5-4.5-4.5zm-75.258 6.333c-.827 0-1.5-.673-1.5-1.5v-.333c0-.827.673-1.5 1.5-1.5h73.758v3.333zm122.167-1.833v.333c0 .827-.673 1.5-1.5 1.5h-43.909v-3.333h43.909c.827 0 1.5.673 1.5 1.5z"/><path d="m68.467 134.833h119.065c.829 0 1.5-.671 1.5-1.5v-43.488c6.239-.745 11.094-6.06 11.094-12.496 0-6.944-5.649-12.594-12.594-12.594-6.435 0-11.75 4.855-12.495 11.094h-106.57c-.829 0-1.5.671-1.5 1.5v55.984c0 .829.672 1.5 1.5 1.5zm119.066-67.078c5.29 0 9.594 4.304 9.594 9.594s-4.304 9.594-9.594 9.594-9.593-4.304-9.593-9.594 4.303-9.594 9.593-9.594zm-117.566 11.094h105.07c.686 5.746 5.25 10.31 10.995 10.996v41.989h-116.065z"/><path d="m119.823 113.185c.61.318 1.273.476 1.933.476.837 0 1.67-.253 2.386-.752l12.397-8.639c1.12-.78 1.789-2.061 1.789-3.426s-.668-2.646-1.789-3.426l-12.397-8.639c-1.281-.892-2.936-.999-4.319-.276-1.384.723-2.244 2.141-2.244 3.702v17.278c0 1.56.86 2.979 2.244 3.702zm.756-20.98c0-.643.442-.943.632-1.042.105-.055.307-.139.555-.139.198 0 .427.053.661.216l12.397 8.64c.32.223.503.574.503.964s-.184.741-.503.964l-12.398 8.639c-.527.367-1.026.177-1.215.078-.19-.099-.632-.399-.632-1.042z"/><path d="m81.416 116.667c-.829 0-1.5.671-1.5 1.5v8.995c0 .829.671 1.5 1.5 1.5s1.5-.671 1.5-1.5v-8.995c0-.828-.672-1.5-1.5-1.5z"/><path d="m86.413 116.667c-.829 0-1.5.671-1.5 1.5v8.995c0 .829.671 1.5 1.5 1.5s1.5-.671 1.5-1.5v-8.995c0-.828-.671-1.5-1.5-1.5z"/><path d="m174.585 121.175v-3.007c0-.829-.671-1.5-1.5-1.5s-1.5.671-1.5 1.5v2.998h-80.8c-.829 0-1.5.671-1.5 1.5s.671 1.5 1.5 1.5h80.8v2.998c0 .829.671 1.5 1.5 1.5s1.5-.671 1.5-1.5v-3.007c.784-.05 1.405-.694 1.405-1.49s-.621-1.443-1.405-1.492z"/><path d="m182.046 82.746c.293.299.681.448 1.069.448.38 0 .76-.143 1.052-.431l3.365-3.31 3.365 3.31c.292.288.672.431 1.052.431.388 0 .776-.15 1.069-.448.581-.59.573-1.54-.018-2.121l-3.33-3.275 3.33-3.275c.591-.581.599-1.531.018-2.121-.581-.591-1.531-.599-2.121-.018l-3.365 3.31-3.365-3.31c-.59-.581-1.54-.573-2.121.018-.581.59-.573 1.54.018 2.121l3.33 3.275-3.33 3.275c-.591.581-.599 1.53-.018 2.121z"/></g></g></g></svg>