<svg height="512" viewBox="0 0 128 128" width="512" xmlns="http://www.w3.org/2000/svg"><path d="m13.447 127h80.541a2.95 2.95 0 0 0 2.947-2.953v-120.094a2.95 2.95 0 0 0 -2.947-2.953h-62.864l-20.624 20.67v102.377a2.95 2.95 0 0 0 2.947 2.953z" fill="#fffffa"/><path d="m44.011 45.727a2.407 2.407 0 0 0 -2.4 2.41v.935h-23.865a2.071 2.071 0 0 0 -2.069 2.074v50.454a2.067 2.067 0 0 0 2.065 2.069h23.865v6l14.793 14.822h40.49a2.937 2.937 0 0 0 .045-.444v-78.32z" fill="#f0f0e6"/><path d="m10.5 21.67h18.709a1.917 1.917 0 0 0 1.915-1.919v-18.751z" fill="#f0f0e6"/><path d="m94.871 99.668h-77.129a2.067 2.067 0 0 1 -2.065-2.068v-50.454a2.071 2.071 0 0 1 2.069-2.074h77.12a2.071 2.071 0 0 1 2.069 2.074v50.454a2.067 2.067 0 0 1 -2.064 2.068z" fill="#f0dc78"/><path d="m94.866 45.072h-62.615v37.128a2.067 2.067 0 0 0 2.065 2.069h3.3v15.4h57.255a2.067 2.067 0 0 0 2.064-2.069v-50.454a2.071 2.071 0 0 0 -2.069-2.074z" fill="#dcc864"/><path d="m96.935 56.538h-81.258v-9.392a2.071 2.071 0 0 1 2.069-2.074h77.12a2.071 2.071 0 0 1 2.069 2.074z" fill="#aad2ff"/><path d="m17.6 49.074a2.071 2.071 0 0 1 2.071-2.074h77.12c.045 0 .1.01.14.013a2.073 2.073 0 0 0 -2.064-1.942h-77.121a2.071 2.071 0 0 0 -2.069 2.074v9.392h1.923z" fill="#bee6ff"/><circle cx="21.042" cy="51.983" fill="#96bef0" r="1.401"/><circle cx="26.647" cy="51.983" fill="#96bef0" r="1.401"/><circle cx="32.251" cy="51.983" fill="#96bef0" r="1.401"/><circle cx="21.042" cy="51.428" fill="#e678a0" r="1.401"/><circle cx="26.647" cy="51.428" fill="#f0dc78" r="1.401"/><circle cx="32.251" cy="51.428" fill="#8d7bd4" r="1.401"/><path d="m115.435 80.266h-77.128a2.067 2.067 0 0 1 -2.065-2.066v-60.456a2.071 2.071 0 0 1 2.069-2.074h77.12a2.071 2.071 0 0 1 2.069 2.074v60.456a2.067 2.067 0 0 1 -2.065 2.066z" fill="#fa8cb4"/><path d="m114.543 80.266v-41.716a2.407 2.407 0 0 0 -2.4-2.41h-65.724a2.407 2.407 0 0 0 -2.4 2.41v41.716z" fill="#e678a0"/><path d="m117.5 27.136h-81.258v-9.392a2.071 2.071 0 0 1 2.069-2.074h77.12a2.071 2.071 0 0 1 2.069 2.074z" fill="#aad2ff"/><path d="m38.167 19.672a2.071 2.071 0 0 1 2.069-2.072h77.12c.045 0 .1.01.14.013a2.073 2.073 0 0 0 -2.065-1.942h-77.12a2.071 2.071 0 0 0 -2.069 2.074v9.392h1.924z" fill="#bee6ff"/><circle cx="41.607" cy="22.581" fill="#96bef0" r="1.401"/><circle cx="47.211" cy="22.581" fill="#96bef0" r="1.401"/><circle cx="52.816" cy="22.581" fill="#96bef0" r="1.401"/><circle cx="41.607" cy="22.026" fill="#e678a0" r="1.401"/><circle cx="47.211" cy="22.026" fill="#f0dc78" r="1.401"/><circle cx="52.816" cy="22.026" fill="#8d7bd4" r="1.401"/><path d="m44.011 33.727h62.727a2.407 2.407 0 0 1 2.4 2.41v81.944a2.407 2.407 0 0 1 -2.4 2.41h-50.338l-14.79-14.823v-69.532a2.407 2.407 0 0 1 2.401-2.409z" fill="#fffffa"/><path d="m41.607 105.668h13.416a1.375 1.375 0 0 1 1.373 1.376v13.447z" fill="#b4aaf0"/><path d="m91.735 61.435a2.849 2.849 0 0 0 -4.035 0l-.632.633-1.383 1.386-25.239 25.296-7.1 7.2 11.135-3.155 25.239-25.295 1.38-1.387.632-.633a2.864 2.864 0 0 0 .003-4.045z" fill="#f0f0e6"/><path d="m87.731 65.506-4.035-4.045-25.239 25.296 4.036 4.044z" fill="#ffe885"/><path d="m84.952 62.719-1.256-1.258-25.239 25.296 1.256 1.258z" fill="#fffa96"/><path d="m87.731 65.506-1.255-1.259-25.239 25.296 1.256 1.258z" fill="#f0dc78"/><path d="m89.746 59.442a2.849 2.849 0 0 0 -4.035 0l-2.011 2.019 4.035 4.044 2.015-2.019a2.864 2.864 0 0 0 -.004-4.044z" fill="#e678a0"/><path d="m86.476 64.247 2.907-2.913c.544-.545.975-1.022.567-1.642a2.855 2.855 0 0 1 -.2 3.794l-2.015 2.019z" fill="#d2648c"/><path d="m87.858 59.806-2.907 2.913-1.251-1.258 2.015-2.019a2.839 2.839 0 0 1 3.786-.2c-.623-.413-1.101.019-1.643.564z" fill="#fa8cb4"/><path d="m58.457 86.757-5.111 9.192 9.147-5.148z" fill="#ffb4be"/><g fill="#785ae6"><path d="m26.646 100.667h-8.9a3.07 3.07 0 0 1 -3.068-3.067v-50.454a3.075 3.075 0 0 1 3.068-3.074h17.5v-26.328a3.075 3.075 0 0 1 3.069-3.074h57.621v-3.335a1 1 0 0 1 2 0v4.335a1 1 0 0 1 -1 1h-58.624a1.072 1.072 0 0 0 -1.069 1.074v27.328a1 1 0 0 1 -1 1h-18.5a1.072 1.072 0 0 0 -1.068 1.074v50.454a1.068 1.068 0 0 0 1.064 1.069h8.9a1 1 0 0 1 0 2z"/><path d="m93.988 128h-80.542a3.954 3.954 0 0 1 -3.946-3.953v-102.377a1 1 0 0 1 .292-.707l20.624-20.67a1 1 0 0 1 .708-.293h62.864a3.955 3.955 0 0 1 3.947 3.953 1 1 0 0 1 -2 0 1.953 1.953 0 0 0 -1.947-1.953h-62.449l-20.039 20.083v101.964a1.952 1.952 0 0 0 1.946 1.953h80.542a1.953 1.953 0 0 0 1.947-1.953v-2.556h-39.535a1 1 0 0 1 -.708-.293l-14.792-14.824a1 1 0 0 1 -.292-.707v-5h-4.366a1 1 0 0 1 0-2h5.364a1 1 0 0 1 1 1v5.586l14.205 14.237h40.125a1 1 0 0 1 1 1v3.556a3.955 3.955 0 0 1 -3.948 3.954z"/><path d="m41.606 100.667h-5.364a1 1 0 0 1 0-2h4.364v-17.4h-2.3a3.071 3.071 0 0 1 -3.064-3.067v-32.128h-17.5a1.072 1.072 0 0 0 -1.068 1.074v50.454a1.068 1.068 0 0 0 1.064 1.069h8.9a1 1 0 0 1 0 2h-8.9a3.07 3.07 0 0 1 -3.06-3.069v-50.454a3.074 3.074 0 0 1 3.068-3.074h18.5a1 1 0 0 1 1 1v33.128a1.068 1.068 0 0 0 1.064 1.069h3.3a1 1 0 0 1 1 1v19.4a1 1 0 0 1 -1.004.998z"/><path d="m36.242 57.538h-20.564a1 1 0 0 1 -1-1v-9.392a3.074 3.074 0 0 1 3.068-3.074h18.5a1 1 0 0 1 1 1v11.466a1 1 0 0 1 -1.004 1zm-19.564-2h18.564v-9.466h-17.5a1.072 1.072 0 0 0 -1.068 1.074z"/><path d="m41.606 81.266h-3.3a3.071 3.071 0 0 1 -3.064-3.066v-60.456a3.075 3.075 0 0 1 3.069-3.074h77.119a3.075 3.075 0 0 1 3.069 3.074v46.177a1 1 0 0 1 -2 0v-46.177a1.072 1.072 0 0 0 -1.069-1.074h-77.118a1.072 1.072 0 0 0 -1.069 1.074v60.456a1.068 1.068 0 0 0 1.064 1.069h2.3v-43.132a3.411 3.411 0 0 1 3.4-3.41h4.019a1 1 0 1 1 0 2h-4.015a1.409 1.409 0 0 0 -1.4 1.41v44.129a1 1 0 0 1 -1.005 1z"/><path d="m115.436 81.266h-6.293a1 1 0 0 1 -1-1v-44.129a1.409 1.409 0 0 0 -1.4-1.41h-48.286a1 1 0 0 1 0-2h48.281a3.411 3.411 0 0 1 3.4 3.41v43.129h5.293a1.068 1.068 0 0 0 1.069-1.066v-5.83a1 1 0 0 1 2 0v5.83a3.071 3.071 0 0 1 -3.064 3.066z"/><path d="m106.737 121.491h-50.337a1 1 0 0 1 -.708-.293l-14.792-14.824a1 1 0 0 1 -.292-.707v-69.53a3.411 3.411 0 0 1 3.4-3.41h4.019a1 1 0 1 1 0 2h-4.016a1.409 1.409 0 0 0 -1.4 1.41v69.117l14.205 14.237h49.926a1.41 1.41 0 0 0 1.405-1.41v-81.944a1.41 1.41 0 0 0 -1.405-1.41h-48.285a1 1 0 0 1 0-2h48.28a3.411 3.411 0 0 1 3.405 3.41v81.944a3.411 3.411 0 0 1 -3.405 3.41z"/><path d="m56.4 121.491a1 1 0 0 1 -.708-.293l-14.792-14.824a1 1 0 0 1 .708-1.707h13.415a2.377 2.377 0 0 1 2.373 2.376v13.447a1 1 0 0 1 -1 1zm-12.38-14.823 11.38 11.405v-11.029a.375.375 0 0 0 -.373-.376z"/><path d="m117.5 28.136h-81.258a1 1 0 0 1 -1-1v-9.392a3.075 3.075 0 0 1 3.069-3.074h77.119a3.075 3.075 0 0 1 3.069 3.074v9.393a1 1 0 0 1 -.999.999zm-80.258-2h79.258v-8.392a1.072 1.072 0 0 0 -1.069-1.074h-77.119a1.072 1.072 0 0 0 -1.069 1.074z"/><path d="m29.209 22.67h-18.709a1 1 0 0 1 -.708-1.707l20.624-20.67a1 1 0 0 1 1.708.707v18.751a2.92 2.92 0 0 1 -2.915 2.919zm-16.3-2h16.3a.918.918 0 0 0 .915-.919v-16.333z"/><path d="m101.722 81.273h-28.722a1 1 0 0 1 0-2h28.725a1 1 0 0 1 0 2z"/><path d="m64.927 81.273h-16.9a1 1 0 1 1 0-2h16.9a1 1 0 0 1 0 2z"/><path d="m101.722 89.75h-37.183a1 1 0 0 1 0-2h37.183a1 1 0 0 1 0 2z"/><path d="m57.35 89.75h-9.32a1 1 0 1 1 0-2h9.32a1 1 0 0 1 0 2z"/><path d="m101.722 64.921h-12.41a1 1 0 0 1 0-2h12.409a1 1 0 0 1 0 2z"/><path d="m81.241 64.921h-33.212a1 1 0 1 1 0-2h33.212a1 1 0 0 1 0 2z"/><path d="m72.783 73.4h-24.754a1 1 0 1 1 0-2h24.754a1 1 0 0 1 0 2z"/><path d="m101.722 73.4h-20.868a1 1 0 0 1 0-2h20.867a1 1 0 0 1 0 2z"/><path d="m101.722 47.881h-53.693a1 1 0 0 1 0-2h53.692a1 1 0 0 1 0 2z"/><path d="m101.722 56.358h-53.693a1 1 0 1 1 0-2h53.692a1 1 0 0 1 0 2z"/><path d="m101.722 96.949h-48.375a1 1 0 0 1 0-2h48.375a1 1 0 0 1 0 2z"/><path d="m62.493 91.8a1 1 0 0 1 -.708-.293l-4.036-4.044a1 1 0 0 1 0-1.413l25.239-25.3a1 1 0 0 1 .708-.293 1 1 0 0 1 .708.294l4.035 4.049a1 1 0 0 1 0 1.413l-6.877 6.887a1 1 0 0 1 -1.416-1.413l6.172-6.186-2.618-2.624-23.83 23.88 2.623 2.629 14.147-14.18a1 1 0 0 1 1.416 1.413l-14.856 14.889a1 1 0 0 1 -.707.292z"/><path d="m87.731 66.505a1 1 0 0 1 -.708-.294l-4.035-4.044a1 1 0 0 1 0-1.413l2.012-2.019a3.942 3.942 0 0 1 5.451 0 3.87 3.87 0 0 1 0 5.458l-2.015 2.019a1 1 0 0 1 -.705.293zm-2.622-5.044 2.622 2.628 1.307-1.31a1.864 1.864 0 0 0 0-2.631 1.892 1.892 0 0 0 -2.619 0z"/><path d="m53.347 96.949a1 1 0 0 1 -.874-1.486l5.11-9.192a1 1 0 0 1 1.582-.221l4.035 4.045a1 1 0 0 1 -.218 1.578l-9.146 5.148a1 1 0 0 1 -.489.128zm5.34-8.547-2.747 4.94 4.915-2.766z"/></g></svg>