<?xml version="1.0" encoding="iso-8859-1"?>
<!-- Generator: Adobe Illustrator 19.0.0, SVG Export Plug-In . SVG Version: 6.00 Build 0)  -->
<svg version="1.1" id="Layer_1" xmlns="http://www.w3.org/2000/svg" xmlns:xlink="http://www.w3.org/1999/xlink" x="0px" y="0px"
	 viewBox="0 0 512 512" style="enable-background:new 0 0 512 512;" xml:space="preserve">
<path style="fill:#CC7400;" d="M450.325,17.709H65.007c-10.596,0-19.266,8.67-19.266,19.266v236.01
	c0,10.596,8.67,19.266,19.266,19.266h385.319c10.596,0,19.266-8.669,19.266-19.266V36.975
	C469.591,26.378,460.922,17.709,450.325,17.709z"/>
<g>
	<path style="fill:#AA6100;" d="M123.759,272.984V36.975c0-10.596,8.67-19.266,19.266-19.266H65.007
		c-10.596,0-19.266,8.67-19.266,19.266v236.01c0,10.596,8.67,19.266,19.266,19.266h78.019
		C132.43,292.25,123.759,283.58,123.759,272.984z"/>
	<path style="fill:#AA6100;" d="M441.294,35.77H74.038c-5.299,0-9.633,4.335-9.633,9.633v217.948c0,5.298,4.335,9.633,9.633,9.633
		h367.257c5.298,0,9.633-4.335,9.633-9.633V45.403C450.927,40.105,446.592,35.77,441.294,35.77z"/>
</g>
<g>
	<path style="fill:#9A4C00;" d="M123.759,36.975c0-0.406,0.037-0.804,0.062-1.204H74.038c-5.298,0-9.633,4.335-9.633,9.633v217.948
		c0,5.298,4.335,9.633,9.633,9.633h49.723l0,0V36.975H123.759z"/>
	<path style="fill:#9A4C00;" d="M64.405,45.403v63.335h386.522V45.403c0-5.299-4.335-9.633-9.633-9.633H74.038
		C68.739,35.77,64.405,40.105,64.405,45.403z"/>
</g>
<path style="fill:#663A00;" d="M123.821,35.77H74.038c-5.298,0-9.633,4.335-9.633,9.633v63.335h59.355V36.975
	C123.759,36.568,123.796,36.17,123.821,35.77z"/>
<path style="fill:#9A4C00;" d="M450.927,245.044v-63.336H64.405v63.335c0,5.299,4.335,9.633,9.633,9.633h367.257
	C446.592,254.677,450.927,250.342,450.927,245.044z"/>
<path style="fill:#C6C5CA;" d="M276.766,35.417h-38.2c-2.299,0-4.18-1.881-4.18-4.18V4.18c0-2.299,1.881-4.18,4.18-4.18h38.2
	c2.299,0,4.18,1.881,4.18,4.18v27.058C280.945,33.536,279.065,35.417,276.766,35.417z"/>
<path style="fill:#ACABB1;" d="M257.666,31.237V4.18c0-2.299,1.881-4.18,4.18-4.18h-23.279c-2.299,0-4.18,1.881-4.18,4.18v27.058
	c0,2.299,1.881,4.18,4.18,4.18h23.279C259.547,35.417,257.666,33.536,257.666,31.237z"/>
<path style="fill:#663A00;" d="M123.821,254.677H74.038c-5.298,0-9.633-4.335-9.633-9.633v-63.336h59.355v71.765
	C123.759,253.879,123.796,254.277,123.821,254.677z"/>
<circle style="fill:#FFD422;" cx="116.319" cy="179.461" r="26.645"/>
<circle style="fill:#EEBF00;" cx="162.879" cy="179.461" r="26.645"/>
<circle style="fill:#FFD422;" cx="209.44" cy="179.461" r="26.645"/>
<circle style="fill:#EEBF00;" cx="256.001" cy="179.461" r="26.645"/>
<circle style="fill:#FFD422;" cx="302.561" cy="179.461" r="26.645"/>
<circle style="fill:#EEBF00;" cx="349.122" cy="179.461" r="26.645"/>
<circle style="fill:#FFD422;" cx="395.682" cy="179.461" r="26.645"/>
<circle style="fill:#FFE477;" cx="93.038" cy="210.923" r="26.645"/>
<circle style="fill:#FFD422;" cx="139.599" cy="210.923" r="26.645"/>
<circle style="fill:#FFE477;" cx="186.16" cy="210.923" r="26.645"/>
<circle style="fill:#FFD422;" cx="232.72" cy="210.923" r="26.645"/>
<circle style="fill:#FFE477;" cx="279.281" cy="210.923" r="26.645"/>
<circle style="fill:#FFD422;" cx="325.841" cy="210.923" r="26.645"/>
<circle style="fill:#FFE477;" cx="372.402" cy="210.923" r="26.645"/>
<circle style="fill:#FFD422;" cx="418.963" cy="210.923" r="26.645"/>
<g>
	<path style="fill:#ACABB1;" d="M42.883,324.164H10.371c-5.299,0-9.633,4.335-9.633,9.633v62.407c0,5.298,4.335,9.633,9.633,9.633
		h32.512c5.299,0,9.633-4.335,9.633-9.633v-62.407C52.516,328.498,48.181,324.164,42.883,324.164z"/>
	<path style="fill:#ACABB1;" d="M501.63,324.164h-32.512c-5.298,0-9.633,4.335-9.633,9.633v62.407c0,5.298,4.335,9.633,9.633,9.633
		h32.511c5.298,0,9.633-4.335,9.633-9.633v-62.407C511.263,328.498,506.928,324.164,501.63,324.164z"/>
</g>
<path style="fill:#AA6100;" d="M464.904,220.846H47.097c-11.259,0-20.47,9.212-20.47,20.47V491.53c0,11.259,9.212,20.47,20.47,20.47
	h417.807c11.259,0,20.47-9.212,20.47-20.47V241.316C485.374,230.058,476.163,220.846,464.904,220.846z"/>
<path style="fill:#9A4C00;" d="M139.661,491.529V241.316c0-11.259,9.212-20.47,20.47-20.47H47.097
	c-11.259,0-20.47,9.212-20.47,20.47v250.213c0,11.259,9.212,20.47,20.47,20.47h113.034C148.872,512,139.661,502.788,139.661,491.529
	z"/>
<path style="fill:#EE8700;" d="M440.822,256.97H71.18c-4.636,0-8.429,3.793-8.429,8.429v202.049c0,4.636,3.793,8.429,8.429,8.429
	h369.642c4.636,0,8.429-3.793,8.429-8.429V265.399C449.25,260.763,445.457,256.97,440.822,256.97z"/>
<g>
	<path style="fill:#CC7400;" d="M71.18,256.97c-4.636,0-8.429,3.793-8.429,8.429v202.049c0,4.636,3.793,8.429,8.429,8.429h68.482
		V256.971H71.18V256.97z"/>
	<path style="fill:#CC7400;" d="M62.751,265.399v64.54H449.25v-64.54c0-4.636-3.793-8.429-8.429-8.429H71.18
		C66.544,256.97,62.751,260.763,62.751,265.399z"/>
	<path style="fill:#CC7400;" d="M449.25,467.448v-64.54H62.751v64.54c0,4.636,3.793,8.429,8.429,8.429h369.642
		C445.457,475.877,449.25,472.084,449.25,467.448z"/>
</g>
<g>
	<path style="fill:#AA6100;" d="M71.18,256.97c-4.636,0-8.429,3.793-8.429,8.429v64.54h76.91v-72.968H71.18V256.97z"/>
	<path style="fill:#AA6100;" d="M62.751,402.907v64.54c0,4.636,3.793,8.429,8.429,8.429h68.482v-72.968H62.751V402.907z"/>
</g>
<rect x="237.934" y="256.972" style="fill:#9A4C00;" width="36.123" height="218.906"/>
<path style="fill:#C6C5CA;" d="M110.012,220.846H47.097c-11.259,0-20.47,9.212-20.47,20.47v62.914
	c0.001,7.976,9.585,6.194,10.216,6.028v0.001c25.907-5.77,25.907-44.861,25.907-44.861c0-4.636,3.793-8.429,8.429-8.429
	c0,0,37.777,0,44.861-25.907h-0.001C116.206,230.431,117.987,220.848,110.012,220.846z"/>
<path style="fill:#ACABB1;" d="M95.309,220.846H47.097c-11.259,0-20.47,9.212-20.47,20.47v62.914
	c0.001,7.976,9.585,6.194,10.216,6.028v0.001c25.907-5.77,25.907-44.861,25.907-44.861c0-4.636,3.793-8.429,8.429-8.429
	c0,0,1.383-0.001,3.659-0.182v-15.472C74.839,230.057,84.051,220.846,95.309,220.846z"/>
<g>
	<path style="fill:#C6C5CA;" d="M26.627,428.615v62.914c0,11.259,9.212,20.47,20.47,20.47h62.914
		c7.976-0.001,6.194-9.585,6.028-10.216h0.001c-5.77-25.907-44.861-25.907-44.861-25.907c-4.636,0-8.429-3.793-8.429-8.429
		c0,0,0-37.777-25.907-44.861v0.001C36.213,422.421,26.628,420.639,26.627,428.615z"/>
	<path style="fill:#C6C5CA;" d="M401.989,512h62.914c11.259,0,20.47-9.212,20.47-20.47v-62.914
		c-0.001-7.976-9.585-6.194-10.216-6.028v-0.001c-25.907,5.77-25.907,44.861-25.907,44.861c0,4.636-3.793,8.429-8.429,8.429
		c0,0-37.777,0-44.861,25.907h0.001C395.795,502.415,394.014,511.999,401.989,512z"/>
	<path style="fill:#C6C5CA;" d="M485.374,304.23v-62.914c0-11.259-9.212-20.47-20.47-20.47h-62.914
		c-7.976,0.001-6.194,9.585-6.028,10.216h-0.001c5.77,25.907,44.861,25.907,44.861,25.907c4.636,0,8.429,3.793,8.429,8.429
		c0,0,0,37.777,25.907,44.861v-0.001C475.789,310.426,485.373,312.207,485.374,304.23z"/>
</g>
<g>
	<path style="fill:#ACABB1;" d="M462.76,255.704c0-4.636-3.793-8.429-8.429-8.429c0,0-39.091,0-44.861-25.907h0.001
		c-0.018-0.069-0.057-0.261-0.099-0.522h-7.381c-7.976,0.001-6.194,9.585-6.028,10.216h-0.001
		c5.77,25.907,44.861,25.907,44.861,25.907c4.636,0,8.429,3.793,8.429,8.429c0,0,0,37.777,25.907,44.861v-0.001
		c0.631,0.166,10.216,1.948,10.216-6.028v-4.809C462.776,290.171,462.76,255.704,462.76,255.704z"/>
	<path style="fill:#ACABB1;" d="M450.516,489.385c4.636,0,8.429-3.793,8.429-8.429c0,0,0-39.091,25.907-44.861v0.001
		c0.069-0.018,0.261-0.057,0.522-0.099v-7.381c-0.001-7.976-9.585-6.194-10.216-6.028v-0.001
		c-25.907,5.77-25.907,44.861-25.907,44.861c0,4.636-3.793,8.429-8.429,8.429c0,0-37.777,0-44.861,25.907h0.001
		c-0.166,0.631-1.948,10.216,6.028,10.216h4.809C416.049,489.403,450.516,489.385,450.516,489.385z"/>
</g>
<path style="fill:#C6C5CA;" d="M270.48,249.688H241.52c-4.636,0-8.429,3.793-8.429,8.429v47.72c0,4.636,3.793,8.429,8.429,8.429
	h28.959c4.636,0,8.429-3.793,8.429-8.429v-47.72C278.909,253.481,275.116,249.688,270.48,249.688z"/>
<g>
	<path style="fill:#ACABB1;" d="M256.371,305.837v-47.72c0-4.636,3.793-8.429,8.429-8.429h-23.279c-4.636,0-8.429,3.793-8.429,8.429
		v47.72c0,4.636,3.793,8.429,8.429,8.429h23.279C260.164,314.267,256.371,310.474,256.371,305.837z"/>
	<path style="fill:#ACABB1;" d="M95.309,512H47.097c-11.259,0-20.47-9.212-20.47-20.47v-62.914
		c0.001-7.976,9.585-6.194,10.216-6.028v-0.001c25.907,5.77,25.907,44.861,25.907,44.861c0,4.636,3.793,8.429,8.429,8.429
		c0,0,1.383,0.001,3.659,0.182v15.472C74.839,502.788,84.051,512,95.309,512z"/>
</g>
<g>
	<path style="fill:#3E3D42;" d="M48.763,255.732c-2.43,0-4.798-0.982-6.503-2.7c-1.719-1.706-2.7-4.087-2.7-6.503
		c0-2.418,0.981-4.798,2.7-6.505c1.705-1.718,4.073-2.699,6.503-2.699c2.429,0,4.798,0.981,6.503,2.699
		c1.719,1.706,2.7,4.087,2.7,6.505c0,2.417-0.981,4.798-2.7,6.503C53.561,254.75,51.192,255.732,48.763,255.732z"/>
	<path style="fill:#3E3D42;" d="M463.238,255.732c-2.43,0-4.798-0.982-6.503-2.7c-1.719-1.706-2.7-4.087-2.7-6.503
		c0-2.418,0.981-4.798,2.7-6.505c1.705-1.718,4.073-2.699,6.503-2.699c2.429,0,4.798,0.981,6.503,2.699
		c1.719,1.706,2.7,4.087,2.7,6.505c0,2.417-0.981,4.798-2.7,6.503C468.037,254.75,465.668,255.732,463.238,255.732z"/>
	<path style="fill:#3E3D42;" d="M463.238,495.522c-2.43,0-4.798-0.982-6.503-2.7c-1.719-1.706-2.7-4.087-2.7-6.503
		c0-2.418,0.981-4.798,2.7-6.505c1.705-1.718,4.073-2.699,6.503-2.699c2.429,0,4.798,0.981,6.503,2.699
		c1.719,1.706,2.7,4.087,2.7,6.505c0,2.417-0.981,4.798-2.7,6.503C468.037,494.54,465.668,495.522,463.238,495.522z"/>
	<path style="fill:#3E3D42;" d="M48.763,495.522c-2.43,0-4.798-0.982-6.503-2.7c-1.719-1.706-2.7-4.087-2.7-6.503
		c0-2.418,0.981-4.798,2.7-6.505c1.705-1.718,4.073-2.699,6.503-2.699c2.429,0,4.798,0.981,6.503,2.699
		c1.719,1.706,2.7,4.087,2.7,6.505c0,2.417-0.981,4.798-2.7,6.503C53.561,494.54,51.192,495.522,48.763,495.522z"/>
</g>
<g>
</g>
<g>
</g>
<g>
</g>
<g>
</g>
<g>
</g>
<g>
</g>
<g>
</g>
<g>
</g>
<g>
</g>
<g>
</g>
<g>
</g>
<g>
</g>
<g>
</g>
<g>
</g>
<g>
</g>
</svg>
